<?xml version="1.0" encoding="UTF-8"?>
<svg width="15px" height="11px" viewBox="0 0 15 11" version="1.1" xmlns="http://www.w3.org/2000/svg" xmlns:xlink="http://www.w3.org/1999/xlink">
    <!-- Generator: Sketch 44.1 (41455) - http://www.bohemiancoding.com/sketch -->
    <title>018_account-multiple</title>
    <desc>Created with Sketch.</desc>
    <defs></defs>
    <g id="Админка--правая-сторона" stroke="none" stroke-width="1" fill="none" fill-rule="evenodd" opacity="0.600000024">
        <g id="039-Группы" transform="translate(-1010.000000, -633.000000)" fill-rule="nonzero" fill="#98A6AD">
            <g id="Группа" transform="translate(480.000000, 95.000000)">
                <g id="Группы" transform="translate(0.000000, 81.000000)">
                    <g id="Техподдержка" transform="translate(0.000000, 440.000000)">
                        <g id="Сотрудники" transform="translate(530.000000, 15.000000)">
                            <g id="ik" transform="translate(0.000000, 2.000000)">
                                <path d="M10.2272749,6.3712301 C10.0295477,6.3712301 9.80659327,6.38350282 9.56932065,6.40804826 C10.3595476,6.97872982 10.9090928,7.74645674 10.9090928,8.75759265 L10.9090928,10.4621373 L15,10.4621373 L15,8.75759265 C15,7.16759337 11.817956,6.3712301 10.2272749,6.3712301 Z M4.7727251,6.3712301 C3.18134855,6.3712301 0,7.16759337 0,8.75759265 L0,10.4621373 L9.54545702,10.4621373 L9.54545702,8.75759265 C9.54545702,7.16759337 6.36341302,6.3712301 4.7727251,6.3712301 Z M4.7727251,5.00759435 C5.90250414,5.00759435 6.81136736,4.09121068 6.81136736,2.96212028 C6.81136736,1.83302989 5.90250414,0.916666667 4.7727251,0.916666667 C3.64294607,0.916666667 2.72727149,1.83302989 2.72727149,2.96212028 C2.72727149,4.09121068 3.64294607,5.00759435 4.7727251,5.00759435 Z M10.2272749,5.00759435 C11.3570471,5.00759435 12.2659103,4.09121068 12.2659103,2.96212028 C12.2659103,1.83302989 11.3570471,0.916666667 10.2272749,0.916666667 C9.09750268,0.916666667 8.18182128,1.83302989 8.18182128,2.96212028 C8.18182128,4.09121068 9.09750268,5.00759435 10.2272749,5.00759435 Z" id="018_account-multiple"></path>
                            </g>
                        </g>
                    </g>
                </g>
            </g>
        </g>
    </g>
</svg>