<?xml version="1.0" encoding="UTF-8"?>
<svg width="4px" height="12px" viewBox="0 0 4 12" version="1.1" xmlns="http://www.w3.org/2000/svg" xmlns:xlink="http://www.w3.org/1999/xlink">
    <!-- Generator: Sketch 44.1 (41455) - http://www.bohemiancoding.com/sketch -->
    <title>058_dots-vertical</title>
    <desc>Created with Sketch.</desc>
    <defs></defs>
    <g id="Админка--правая-сторона" stroke="none" stroke-width="1" fill="none" fill-rule="evenodd">
        <g id="039-Группы" transform="translate(-1534.000000, -280.000000)" fill-rule="nonzero" fill="#98A6AD">
            <g id="Группа" transform="translate(480.000000, 95.000000)">
                <g id="Группы" transform="translate(0.000000, 81.000000)">
                    <g id="Отдел-продаж" transform="translate(0.000000, 88.000000)">
                        <g id="ik" transform="translate(1054.000000, 16.000000)">
                            <path d="M2,8.66666667 C2.7364,8.66666667 3.33333333,9.2636 3.33333333,10 C3.33333333,10.7364 2.7364,11.3333333 2,11.3333333 C1.2636,11.3333333 0.666666667,10.7364 0.666666667,10 C0.666666667,9.2636 1.2636,8.66666667 2,8.66666667 Z M2,4.66666667 C2.7364,4.66666667 3.33333333,5.2636 3.33333333,6 C3.33333333,6.7364 2.7364,7.33333333 2,7.33333333 C1.2636,7.33333333 0.666666667,6.7364 0.666666667,6 C0.666666667,5.2636 1.2636,4.66666667 2,4.66666667 Z M2,0.666666667 C2.7364,0.666666667 3.33333333,1.26362667 3.33333333,2 C3.33333333,2.73638 2.7364,3.33333333 2,3.33333333 C1.2636,3.33333333 0.666666667,2.73638 0.666666667,2 C0.666666667,1.26362 1.2636,0.666666667 2,0.666666667 Z" id="058_dots-vertical"></path>
                        </g>
                    </g>
                </g>
            </g>
        </g>
    </g>
</svg>