<?xml version="1.0" encoding="UTF-8"?>
<svg width="12px" height="12px" viewBox="0 0 12 12" version="1.1" xmlns="http://www.w3.org/2000/svg" xmlns:xlink="http://www.w3.org/1999/xlink">
    <!-- Generator: Sketch 44.1 (41455) - http://www.bohemiancoding.com/sketch -->
    <title>062_phone</title>
    <desc>Created with Sketch.</desc>
    <defs></defs>
    <g id="Админка--правая-сторона" stroke="none" stroke-width="1" fill="none" fill-rule="evenodd" opacity="0.600000024">
        <g id="039-Группы" transform="translate(-1200.000000, -632.000000)" fill-rule="nonzero" fill="#98A6AD">
            <g id="Группа" transform="translate(480.000000, 95.000000)">
                <g id="Группы" transform="translate(0.000000, 81.000000)">
                    <g id="Техподдержка" transform="translate(0.000000, 440.000000)">
                        <g id="В-разговоре" transform="translate(720.000000, 15.000000)">
                            <g id="ik" transform="translate(0.000000, 1.000000)">
                                <path d="M2.41600796,5.19668179 C3.37665916,7.08401092 4.9200024,8.62667416 6.80866487,9.58667203 L8.27532828,8.11800863 C8.4586612,7.9346757 8.72199395,7.88067582 8.95266011,7.95467566 C9.70199177,8.19934178 10.5026567,8.33334148 11.3339881,8.33334148 C11.7019873,8.33334148 12.0006533,8.63134082 12.0006533,9.00000667 L12.0006533,11.3333348 C12.0006533,11.7020007 11.7019873,12 11.3339881,12 C5.07466872,12 0,6.92601128 0,0.666665185 C0,0.298006004 0.298666003,0 0.666665185,0 L2.99999333,0 C3.36866585,0 3.66665852,0.298006004 3.66665852,0.666665185 C3.66665852,1.49800334 3.80067155,2.29866823 4.04533768,3.04799989 C4.12000418,3.27865938 4.06533763,3.54199213 3.88265804,3.72466506 L2.41600796,5.19668179 Z" id="062_phone"></path>
                            </g>
                        </g>
                    </g>
                </g>
            </g>
        </g>
    </g>
</svg>