<?xml version="1.0" encoding="UTF-8"?>
<svg width="10px" height="10px" viewBox="0 0 10 10" version="1.1" xmlns="http://www.w3.org/2000/svg" xmlns:xlink="http://www.w3.org/1999/xlink">
    <!-- Generator: Sketch 44.1 (41455) - http://www.bohemiancoding.com/sketch -->
    <title>063_magnify</title>
    <desc>Created with Sketch.</desc>
    <defs></defs>
    <g id="Админка--правая-сторона" stroke="none" stroke-width="1" fill="none" fill-rule="evenodd" opacity="0.600000024">
        <g id="039-Группы" transform="translate(-515.000000, -111.000000)" fill-rule="nonzero" fill="#98A6AD">
            <g id="Группа" transform="translate(480.000000, 95.000000)">
                <g id="Поиск-1" transform="translate(30.000000, 0.000000)">
                    <g id="ik" transform="translate(5.000000, 16.000000)">
                        <path d="M3.71428571,0 C5.76565714,0 7.42857143,1.66294286 7.42857143,3.71428571 C7.42857143,4.63708571 7.092,5.48131429 6.53497143,6.13091429 L6.68977143,6.28571429 L7.14285714,6.28571429 L10,9.14285714 L9.14285714,10 L6.28571429,7.14285714 L6.28571429,6.68977143 L6.13091429,6.53497143 C5.48131429,7.092 4.63708571,7.42857143 3.71428571,7.42857143 C1.66294286,7.42857143 0,5.76565714 0,3.71428571 C0,1.66294286 1.66294286,0 3.71428571,0 Z M3.71428571,1.14286286 C2.29412571,1.14286286 1.14285714,2.29413143 1.14285714,3.71429143 C1.14285714,5.13445714 2.29412571,6.28571429 3.71428571,6.28571429 C5.13445714,6.28571429 6.28571429,5.13445714 6.28571429,3.71429143 C6.28571429,2.29413143 5.13445714,1.14286286 3.71428571,1.14286286 Z" id="063_magnify"></path>
                    </g>
                </g>
            </g>
        </g>
    </g>
</svg>