<?xml version="1.0" encoding="UTF-8"?>
<svg width="24px" height="25px" viewBox="0 0 24 25" version="1.1" xmlns="http://www.w3.org/2000/svg" xmlns:xlink="http://www.w3.org/1999/xlink">
    <!-- Generator: Sketch 44.1 (41455) - http://www.bohemiancoding.com/sketch -->
    <title>account-switch</title>
    <desc>Created with Sketch.</desc>
    <defs></defs>
    <g id="Админка--правая-сторона" stroke="none" stroke-width="1" fill="none" fill-rule="evenodd">
        <g id="039-Группы" transform="translate(-54.000000, -421.000000)" fill-rule="nonzero" fill="#827F9C">
            <g id="softFon">
                <g id="left_menu-copy">
                    <path d="M70.1797826,430.434762 C72.6962781,430.434762 77.7303477,431.694628 77.7303477,434.210045 L77.7303477,436.906675 L71.2584347,436.906675 L71.2584347,434.210045 C71.2584347,432.610404 70.3890411,431.395841 69.1388832,430.493009 L70.1797826,430.434762 Z M61.5505652,430.434762 C64.0670607,430.434762 69.1011304,431.694628 69.1011304,434.210045 L69.1011304,436.906675 L54,436.906675 L54,434.210045 C54,431.694628 59.0330018,430.434762 61.5505652,430.434762 Z M61.5505652,428.277458 C59.7632601,428.277458 58.3146087,426.827749 58.3146087,425.041501 C58.3146087,423.255264 59.7632601,421.805556 61.5505652,421.805556 C63.3379134,421.805556 64.7757352,423.255264 64.7757352,425.041501 C64.7757352,426.827749 63.3379134,428.277458 61.5505652,428.277458 Z M70.1797826,428.277458 C68.3924559,428.277458 66.943826,426.827749 66.943826,425.041501 C66.943826,423.255264 68.3924559,421.805556 70.1797826,421.805556 C71.9671092,421.805556 73.4049525,423.255264 73.4049525,425.041501 C73.4049525,426.827749 71.9671092,428.277458 70.1797826,428.277458 Z M62.6292174,438.794316 L62.6292174,441.221284 L69.1011304,441.221284 L69.1011304,438.794316 L72.6067499,442.299936 L69.1011304,445.805556 L69.1011304,443.378588 L62.6292174,443.378588 L62.6292174,445.805556 L59.1235978,442.299936 L62.6292174,438.794316 Z" id="account-switch"></path>
                </g>
            </g>
        </g>
    </g>
</svg>