<?xml version="1.0" encoding="UTF-8"?>
<svg width="26px" height="15px" viewBox="0 0 26 15" version="1.1" xmlns="http://www.w3.org/2000/svg" xmlns:xlink="http://www.w3.org/1999/xlink">
    <!-- Generator: Sketch 44.1 (41455) - http://www.bohemiancoding.com/sketch -->
    <title>account-multiple-plus</title>
    <desc>Created with Sketch.</desc>
    <defs></defs>
    <g id="Админка--правая-сторона" stroke="none" stroke-width="1" fill="none" fill-rule="evenodd">
        <g id="039-Группы" transform="translate(-53.000000, -481.000000)" fill-rule="nonzero" fill="#827F9C">
            <g id="softFon">
                <g id="left_menu-copy">
                    <path d="M67.0833309,489.666701 C64.9166637,489.666701 60.5833295,490.751118 60.5833295,492.916702 L60.5833295,495.083369 L73.5833322,495.083369 L73.5833322,492.916702 C73.5833322,490.751118 69.249998,489.666701 67.0833309,489.666701 Z M74.2560823,489.840143 C75.1541659,490.625451 75.7499993,491.636201 75.7499993,492.916702 L75.7499993,495.083369 L79,495.083369 L79,492.916702 C79,491.247285 76.4281661,490.223101 74.2560823,489.840143 Z M67.0833309,487.500034 C68.8784146,487.500034 70.3224982,486.044001 70.3224982,484.250001 C70.3224982,482.456 68.8784146,481 67.0833309,481 C65.2882471,481 63.833341,482.456 63.833341,484.250001 C63.833341,486.044001 65.2882471,487.500034 67.0833309,487.500034 Z M72.4999986,487.500034 C74.2950824,487.500034 75.739166,486.044001 75.739166,484.250001 C75.739166,482.456 74.2950824,481 72.4999986,481 C72.1544152,481 71.8218318,481.05525 71.5087484,481.156 C72.1229986,482.034584 72.4891653,483.098406 72.4891653,484.250001 C72.4891653,485.401584 72.1229986,486.46545 71.5087484,487.344034 C71.8218318,487.444784 72.1544152,487.500034 72.4999986,487.500034 Z M61.6666631,486.416668 L58.4166624,486.416668 L58.4166624,483.166667 L56.2500061,483.166667 L56.2500061,486.416668 L53,486.416668 L53,488.583367 L56.2500061,488.583367 L56.2500061,491.833368 L58.4166624,491.833368 L58.4166624,488.583367 L61.6666631,488.583367 L61.6666631,486.416668 Z" id="account-multiple-plus"></path>
                </g>
            </g>
        </g>
    </g>
</svg>