<?xml version="1.0" encoding="UTF-8"?>
<svg width="20px" height="26px" viewBox="0 0 20 26" version="1.1" xmlns="http://www.w3.org/2000/svg" xmlns:xlink="http://www.w3.org/1999/xlink">
    <!-- Generator: Sketch 44.1 (41455) - http://www.bohemiancoding.com/sketch -->
    <title>dialpad</title>
    <desc>Created with Sketch.</desc>
    <defs></defs>
    <g id="Админка--правая-сторона" stroke="none" stroke-width="1" fill="none" fill-rule="evenodd">
        <g id="039-Группы" transform="translate(-55.000000, -528.000000)" fill-rule="nonzero" fill="#827F9C">
            <g id="softFon">
                <g id="left_menu-copy">
                    <path d="M65.0656566,549.272727 C63.7656566,549.272727 62.7020202,550.336364 62.7020202,551.636364 C62.7020202,552.936364 63.7656566,554 65.0656566,554 C66.3656566,554 67.4292929,552.936364 67.4292929,551.636364 C67.4292929,550.336364 66.3656566,549.272727 65.0656566,549.272727 Z M57.9747475,528 C56.6747475,528 55.6111111,529.063636 55.6111111,530.363636 C55.6111111,531.663636 56.6747475,532.727273 57.9747475,532.727273 C59.2747475,532.727273 60.3383838,531.663636 60.3383838,530.363636 C60.3383838,529.063636 59.2747475,528 57.9747475,528 Z M57.9747475,535.090909 C56.6747475,535.090909 55.6111111,536.154545 55.6111111,537.454545 C55.6111111,538.754545 56.6747475,539.818182 57.9747475,539.818182 C59.2747475,539.818182 60.3383838,538.754545 60.3383838,537.454545 C60.3383838,536.154545 59.2747475,535.090909 57.9747475,535.090909 Z M57.9747475,542.181818 C56.6747475,542.181818 55.6111111,543.245455 55.6111111,544.545455 C55.6111111,545.845455 56.6747475,546.909091 57.9747475,546.909091 C59.2747475,546.909091 60.3383838,545.845455 60.3383838,544.545455 C60.3383838,543.245455 59.2747475,542.181818 57.9747475,542.181818 Z M72.1565657,532.727273 C73.4565657,532.727273 74.520202,531.663636 74.520202,530.363636 C74.520202,529.063636 73.4565657,528 72.1565657,528 C70.8565657,528 69.7929293,529.063636 69.7929293,530.363636 C69.7929293,531.663636 70.8565657,532.727273 72.1565657,532.727273 Z M65.0656566,542.181818 C63.7656566,542.181818 62.7020202,543.245455 62.7020202,544.545455 C62.7020202,545.845455 63.7656566,546.909091 65.0656566,546.909091 C66.3656566,546.909091 67.4292929,545.845455 67.4292929,544.545455 C67.4292929,543.245455 66.3656566,542.181818 65.0656566,542.181818 Z M72.1565657,542.181818 C70.8565657,542.181818 69.7929293,543.245455 69.7929293,544.545455 C69.7929293,545.845455 70.8565657,546.909091 72.1565657,546.909091 C73.4565657,546.909091 74.520202,545.845455 74.520202,544.545455 C74.520202,543.245455 73.4565657,542.181818 72.1565657,542.181818 Z M72.1565657,535.090909 C70.8565657,535.090909 69.7929293,536.154545 69.7929293,537.454545 C69.7929293,538.754545 70.8565657,539.818182 72.1565657,539.818182 C73.4565657,539.818182 74.520202,538.754545 74.520202,537.454545 C74.520202,536.154545 73.4565657,535.090909 72.1565657,535.090909 Z M65.0656566,535.090909 C63.7656566,535.090909 62.7020202,536.154545 62.7020202,537.454545 C62.7020202,538.754545 63.7656566,539.818182 65.0656566,539.818182 C66.3656566,539.818182 67.4292929,538.754545 67.4292929,537.454545 C67.4292929,536.154545 66.3656566,535.090909 65.0656566,535.090909 Z M65.0656566,528 C63.7656566,528 62.7020202,529.063636 62.7020202,530.363636 C62.7020202,531.663636 63.7656566,532.727273 65.0656566,532.727273 C66.3656566,532.727273 67.4292929,531.663636 67.4292929,530.363636 C67.4292929,529.063636 66.3656566,528 65.0656566,528 Z" id="dialpad"></path>
                </g>
            </g>
        </g>
    </g>
</svg>