<?xml version="1.0" encoding="UTF-8"?>
<svg width="60px" height="65px" viewBox="0 0 60 65" version="1.1" xmlns="http://www.w3.org/2000/svg" xmlns:xlink="http://www.w3.org/1999/xlink">
    <!-- Generator: Sketch 44.1 (41455) - http://www.bohemiancoding.com/sketch -->
    <title>logo</title>
    <desc>Created with Sketch.</desc>
    <defs>
        <polygon id="path-1" points="0 5.47847459 0 10.8806427 8.69999525 10.8806427 8.69999525 0.0763064207 0 0.0763064207 0 5.47847459"></polygon>
        <polygon id="path-3" points="2.17186898 10.8806427 0.0661736182 10.8806427 0.0661736182 0.0763537278 2.17186898 0.0763537278"></polygon>
        <polygon id="path-5" points="2.57060503 10.8806427 0.464909673 10.8806427 0.464909673 0.0763537278 2.57060503 0.0763537278"></polygon>
        <polygon id="path-7" points="0.339198624 10.8806427 9.98157961 10.8806427 9.98157961 0.0762591135 0.339198624 0.0762591135"></polygon>
    </defs>
    <g id="Админка--правая-сторона" stroke="none" stroke-width="1" fill="none" fill-rule="evenodd">
        <g id="039-Группы" transform="translate(-36.000000, -25.000000)">
            <g id="softFon">
                <g id="left_menu-copy">
                    <g id="logo" transform="translate(36.000000, 25.000000)">
                        <g id="Group-2-Copy" transform="translate(7.000000, 0.000000)" fill="#E5382F">
                            <path d="M35.9807534,26.6606497 C34.8083602,27.8390706 33.2773304,28.4360868 31.7401822,28.4550096 C31.7335931,28.4550096 31.7265333,28.4540635 31.7199442,28.4540635 C31.7081779,28.4540635 31.6968823,28.4535904 31.6855867,28.4535904 C31.6639367,28.4535904 31.643228,28.451225 31.6220487,28.451225 C31.6126356,28.4516981 31.6032226,28.4531173 31.5933389,28.4531173 L31.5768661,28.4531173 C30.0444244,28.430883 28.5185719,27.8333938 27.3490026,26.6582843 C26.1723735,25.4756058 25.5779405,23.9305545 25.562409,22.3812456 C25.5633503,22.3457652 25.5671156,22.3117041 25.5666449,22.2757507 C25.5661743,22.2558817 25.5633503,22.2364857 25.562409,22.2161437 C25.5887655,20.6815 26.1822572,19.1544254 27.3475906,17.9831006 C28.5256317,16.7985297 30.0660744,16.2005674 31.6098117,16.1868484 C31.6262845,16.1868484 31.6427574,16.1873214 31.6587595,16.1873214 C31.6761736,16.1873214 31.6931171,16.1896868 31.7100605,16.1892137 C31.7180616,16.1892137 31.725592,16.1877945 31.7335931,16.1877945 L31.7528898,16.1877945 C31.7590083,16.1877945 31.7651268,16.1863753 31.7721865,16.1863753 C33.2985098,16.2128673 34.8173025,16.8094104 35.9821653,17.9802621 C37.1578531,19.1619946 37.7522861,20.7065728 37.7682882,22.2554086 C37.7682882,22.2591932 37.7673469,22.2634508 37.7673469,22.2672354 C37.7678176,22.2871044 37.7673469,22.3069734 37.7673469,22.3268424 C37.7673469,22.3396153 37.7654643,22.3519152 37.765935,22.364215 C37.765935,22.370365 37.7668763,22.3755687 37.7668763,22.3817187 L37.7668763,22.4110491 C37.7447556,23.9513697 37.1503226,25.4850672 35.9807534,26.6606497 M41.6050403,25.6312463 C41.6855217,25.6189464 41.7660031,25.6061735 41.8441313,25.5881968 C41.8662519,25.5834661 41.8874312,25.57637 41.9095519,25.5706931 C41.9942691,25.5494049 42.0794571,25.5266975 42.1618211,25.4987863 C42.1759407,25.4940556 42.1895896,25.4879056 42.2041798,25.4827019 C42.2926623,25.4514791 42.3802035,25.4183641 42.4649208,25.3795723 C42.4719805,25.3767339 42.4785697,25.3729493 42.4851588,25.3696378 C42.5764652,25.3280075 42.665889,25.2825926 42.7524889,25.2329201 C42.7539009,25.2324471 42.7553128,25.2315009 42.7562541,25.2310279 C43.7738029,24.6448924 44.4534239,23.5379052 44.4369511,22.2757507 C44.4341272,22.0552994 44.408712,21.840525 44.365412,21.6323735 C44.3640001,21.6252775 44.3635294,21.6181814 44.3621175,21.6115584 C44.3447033,21.5311363 44.3221121,21.4526064 44.2990501,21.3740765 C44.2915197,21.3475845 44.2858719,21.3201464 44.2774002,21.2936544 C44.2543382,21.2212745 44.2260991,21.1512599 44.1983307,21.0817184 C44.1865644,21.0514418 44.1766807,21.0202191 44.1635025,20.9904156 C44.1338514,20.9213472 44.0994939,20.8546441 44.0651363,20.787941 C44.0505461,20.7595568 44.0383091,20.7302263 44.0227776,20.7023151 C43.9855962,20.6346659 43.9441788,20.5698551 43.9027615,20.5055174 C43.8867593,20.4809177 43.8731104,20.4553718 43.8566376,20.4312452 C43.8114551,20.3650152 43.7625073,20.3020967 43.7126182,20.2391782 C43.6970867,20.2193092 43.6824965,20.198021 43.6664944,20.1786251 C43.6123694,20.1133412 43.5549499,20.0513688 43.4961185,19.9903426 C43.4819989,19.9761505 43.4692913,19.9605391 43.4547011,19.946347 C43.3925751,19.8834285 43.3262132,19.8247676 43.2589101,19.7670529 C43.2466731,19.7566453 43.2349068,19.7448186 43.2226699,19.7348841 C43.1516015,19.6757501 43.0777092,19.6208738 43.0014636,19.5678898 C42.9915799,19.5607938 42.9816962,19.5527516 42.9713419,19.5456555 C42.8927431,19.4921984 42.8113204,19.4425259 42.728015,19.3956918 C42.7195433,19.3909611 42.7115422,19.3857573 42.7025998,19.3805536 C42.6178825,19.3337195 42.5303413,19.2916161 42.4413882,19.2523512 C42.4329165,19.2485666 42.425386,19.2447821 42.417385,19.2409975 C42.3279611,19.2022056 42.2366547,19.1686176 42.1434657,19.1378679 C42.1345233,19.1345564 42.1260516,19.1312449 42.1171092,19.1284065 C42.0243908,19.098603 41.9297899,19.0735302 41.8342476,19.052242 C41.8238933,19.0498766 41.8140096,19.0470382 41.8036552,19.0446728 C41.7095249,19.0243308 41.6139826,19.0091925 41.517499,18.9968926 C41.5038502,18.9950003 41.4906719,18.9931081 41.477023,18.9912158 C41.3833633,18.9808082 41.289233,18.9751313 41.1936907,18.972766 C41.1805125,18.9722929 41.1678049,18.9704006 41.1550973,18.9704006 C41.1438017,18.9704006 41.1320354,18.9699276 41.1207397,18.9699276 C41.0995604,18.9699276 41.0788517,18.9670891 41.0572018,18.9675622 C41.0477887,18.9675622 41.0383757,18.9694545 41.028492,18.9694545 L41.0120192,18.9694545 C39.4795775,18.9472201 37.9532543,18.3497309 36.7841557,17.1741484 C35.6084679,15.992416 35.0140349,14.448784 34.9980328,12.8999481 C34.9985034,12.8635216 35.0022686,12.8285143 35.001798,12.7920878 C35.000386,12.6761853 34.9928556,12.5626482 34.980148,12.4500572 C34.9796774,12.4448534 34.9782654,12.4396496 34.9773241,12.4349189 C34.9650872,12.3289509 34.9481437,12.2239291 34.9255524,12.1212726 C34.919434,12.0924152 34.9100209,12.0649771 34.9029611,12.0365928 C34.8841351,11.958536 34.8648384,11.8804792 34.8408351,11.8043147 C34.8271862,11.7636306 34.8107134,11.7243656 34.7956526,11.6841546 C34.7735319,11.6231283 34.7523526,11.5616291 34.7264668,11.5020221 C34.7052875,11.4523496 34.6794016,11.4045694 34.655869,11.355843 C34.6323365,11.3090089 34.6111571,11.2612287 34.5862126,11.2153408 C34.5546789,11.1580991 34.5189094,11.1036959 34.4845519,11.0488196 C34.4629019,11.0147585 34.4431345,10.9792781 34.4205432,10.9461631 C34.3781846,10.8841908 34.3325314,10.8255299 34.2864075,10.7668691 C34.2675815,10.7432155 34.2501673,10.7176696 34.2308706,10.6944891 C34.1781576,10.6310976 34.1221501,10.5705444 34.0647306,10.5109374 C34.0496698,10.4953261 34.0355502,10.4782955 34.0200187,10.4626841 C33.9564807,10.3988195 33.8891775,10.3392125 33.8209331,10.2805516 C33.8101081,10.2715633 33.7997537,10.2611557 33.7889288,10.2521674 C33.7145658,10.1906681 33.6373789,10.1329534 33.5573682,10.077604 C33.5512497,10.0733464 33.5456019,10.0686157 33.5390127,10.0638849 C33.4547661,10.0066433 33.3676956,9.95318622 33.2782717,9.90351372 C33.2759185,9.90209451 33.2740359,9.9006753 33.2721533,9.89972915 C33.0862459,9.79707265 32.8899842,9.7119198 32.68478,9.6456898 C32.6828974,9.64521673 32.6810148,9.64427058 32.6786616,9.64332444 C32.5831193,9.6125748 32.4852238,9.58702894 32.3859163,9.56526766 C32.3793271,9.56337537 32.3722674,9.56148308 32.3656782,9.56006387 C32.2706066,9.5397218 32.174123,9.52458351 32.0762275,9.51228366 C32.0644612,9.51086444 32.0526949,9.50897216 32.040458,9.50755294 C31.9477396,9.4966723 31.8531386,9.49146851 31.7575963,9.48910316 C31.7448888,9.48863009 31.7326518,9.4867378 31.7199442,9.48626473 L31.6860573,9.48626473 C31.664878,9.48626473 31.6436987,9.4834263 31.6220487,9.48389937 C31.612165,9.48389937 31.602752,9.48531859 31.5933389,9.48579166 C31.5876911,9.48531859 31.5820433,9.48579166 31.5768661,9.48531859 C31.5749835,9.48579166 31.5731009,9.48579166 31.5707477,9.48579166 C30.0406592,9.46213809 28.5176306,8.86512195 27.3499439,7.69143175 C26.1714322,6.5068609 25.5765286,4.9589712 25.5628797,3.40682386 L25.5628797,3.39972779 C25.5633503,3.36897815 25.5671156,3.33917465 25.5666449,3.308425 C25.5661743,3.29423286 25.5642916,3.28098686 25.563821,3.26679472 L25.563821,3.26348322 C25.563821,3.25638715 25.562409,3.24976415 25.562409,3.24314115 C25.5045189,1.45871574 24.0652662,0.0376091782 22.2946748,0.0040211071 C22.2913803,0.0040211071 22.2885564,0.00354803568 22.2852618,0.00354803568 L22.2772607,0.00354803568 C22.247139,0.00307496426 22.217488,-0.000236535712 22.1868956,0.000236535712 C22.1727761,0.000236535712 22.1595978,0.00212882141 22.1454783,0.00260189283 L22.1426543,0.00260189283 C22.1365359,0.00260189283 22.1304174,0.00354803568 22.1247696,0.0040211071 C20.3118195,0.0617358208 18.8711549,1.56657602 18.8951582,3.39688936 C18.919632,5.24849091 20.432777,6.73015061 22.2749075,6.7055509 C22.290439,6.70507783 22.3054998,6.70271247 22.321502,6.70271247 C23.853473,6.72494683 25.3788549,7.32243603 26.5479535,8.49754545 C27.7217587,9.67738558 28.315721,11.2181792 28.3336058,12.7646497 C28.3331351,12.7707996 28.3326645,12.7769496 28.3321938,12.7835726 C28.3326645,12.8034416 28.3321938,12.8233106 28.3321938,12.8431796 C28.3321938,12.8559525 28.3303112,12.8682523 28.3307819,12.8810253 C28.3307819,12.8867021 28.3317232,12.892379 28.3317232,12.8980558 L28.3317232,12.9269132 C28.3091319,14.4677068 27.7151696,16.0014044 26.5456003,17.1769869 C25.3727364,18.3554078 23.8417067,18.9524239 22.3050292,18.9713468 C22.29844,18.9713468 22.2913803,18.9704006 22.2843205,18.9704006 C22.2730248,18.9704006 22.2617292,18.9699276 22.2504336,18.9699276 C22.2287836,18.9699276 22.2080749,18.9670891 22.1868956,18.9675622 C22.1770119,18.9675622 22.1675989,18.9694545 22.1577152,18.9694545 L22.141713,18.9694545 C22.1097087,18.9704006 22.0786457,18.9746583 22.0475827,18.9765506 C21.9708665,18.9808082 21.8941503,18.9845928 21.8193167,18.9935811 C21.7887243,18.9973657 21.7595439,19.0044618 21.7289516,19.0091925 C21.6503528,19.0210193 21.5712833,19.0328461 21.4945671,19.0503497 C21.4724464,19.0550804 21.4512671,19.0626496 21.4296171,19.0678533 C21.3458412,19.0886685 21.2625358,19.1104298 21.1811131,19.1373948 C21.1768772,19.1388141 21.173112,19.1407063 21.1688761,19.1421256 C20.569266,19.3446001 20.0473133,19.7126497 19.6547899,20.1928172 C19.6538486,20.1937633 19.6524366,20.1951826 19.6514953,20.1961287 C19.5874867,20.2741855 19.5277139,20.3555538 19.4712357,20.4397605 C19.4693531,20.4425989 19.4669999,20.4454373 19.4651173,20.4482758 C19.4091097,20.5315363 19.3578087,20.6176353 19.3093316,20.7056266 C19.3069783,20.7098843 19.3041544,20.7136688 19.3018012,20.7179265 C19.254736,20.8054447 19.2119067,20.8958013 19.1719013,20.9875772 C19.1690774,20.9942002 19.1657828,21.0003501 19.1634296,21.0065 C19.1262481,21.092599 19.0947144,21.1810634 19.065534,21.2704739 C19.0608275,21.2837199 19.0556504,21.2969659 19.0514145,21.3097388 C19.025058,21.3948917 19.0029374,21.4814638 18.98317,21.568982 C18.9784635,21.5883779 18.9732863,21.6068277 18.9690505,21.6262236 C18.9516363,21.7094842 18.9389288,21.794164 18.9276331,21.8797899 C18.9243386,21.9048627 18.9201027,21.9294624 18.9172788,21.9545352 C18.908807,22.0354304 18.9045712,22.1167987 18.9012766,22.1991131 C18.9003353,22.2218205 18.8975114,22.244528 18.8970408,22.2672354 C18.8970408,22.2871044 18.8965701,22.3074465 18.8965701,22.3273155 C18.8965701,22.3400884 18.8951582,22.3519152 18.8951582,22.364215 C18.8951582,22.370365 18.8960995,22.3755687 18.8965701,22.3812456 C18.8960995,22.3911801 18.8965701,22.4011146 18.8960995,22.4110491 C18.8979821,22.4687638 18.9045712,22.5250593 18.9092777,22.582301 C18.9125723,22.6296081 18.9139842,22.6773883 18.919632,22.7237493 C18.9281038,22.794237 18.941282,22.8633054 18.9544603,22.9323738 C18.96152,22.9711657 18.9662265,23.0113767 18.9746983,23.0496955 C18.9921124,23.1296446 19.0151743,23.2072283 19.0382362,23.284812 C19.0462373,23.3108309 19.0518851,23.3382691 19.0603569,23.3647611 C19.0918905,23.4617407 19.1281307,23.556355 19.1681361,23.6495501 C19.1704894,23.6552269 19.172372,23.6613769 19.1747252,23.6665807 C19.2617958,23.8657437 19.3672217,24.0544992 19.4891205,24.2304818 C19.4947683,24.2389971 19.5013574,24.2460932 19.5074759,24.2546084 C19.5620715,24.3326652 19.619491,24.4088297 19.6806757,24.4816827 C19.7046789,24.510067 19.7310354,24.5356129 19.7555093,24.563051 C19.8011625,24.6136697 19.8458744,24.6647614 19.8943515,24.7125416 C19.9301211,24.7480219 19.9687145,24.7797177 20.0063666,24.8137789 C20.0468427,24.8502054 20.0859068,24.887578 20.1282654,24.9221122 C20.1739186,24.9594849 20.2223957,24.9930729 20.2699315,25.0280802 C20.3066424,25.0550453 20.3419412,25.0834296 20.3805347,25.1089754 C20.4351303,25.145875 20.4925498,25.17899 20.5494986,25.212105 C20.5829149,25.231974 20.6149192,25.2527891 20.6488061,25.2712389 C20.7123441,25.3057731 20.7777646,25.3360497 20.8436559,25.3663263 C20.8733069,25.3795723 20.9024873,25.3951836 20.932609,25.4079566 C21.0032068,25.4382331 21.0761578,25.463779 21.1491088,25.4888518 C21.1764066,25.4983132 21.2032337,25.5087208 21.2310022,25.5177091 C21.3072477,25.5418358 21.3849052,25.5612317 21.4635041,25.5801546 C21.4898605,25.5863045 21.5157464,25.5938736 21.5421029,25.5990774 C21.623055,25.616108 21.7049483,25.6288809 21.787783,25.6397616 C21.8131982,25.6430731 21.8386134,25.6478038 21.8640286,25.6506422 C21.9482752,25.6596306 22.0329925,25.6643613 22.1186511,25.6671997 C22.1374772,25.6676728 22.1558326,25.6705112 22.1746587,25.6709843 C22.1911315,25.6705112 22.2071336,25.6709843 22.2240771,25.6709843 C22.2410205,25.6709843 22.2574933,25.6733496 22.2749075,25.6728766 C22.2829085,25.6728766 22.290439,25.6719304 22.29844,25.6714574 L22.3177368,25.6714574 C22.3238552,25.6714574 22.3304443,25.6705112 22.3370335,25.6700381 C23.8633567,25.6965301 25.3816788,26.2935463 26.5470122,27.463925 C27.7227,28.6461305 28.317133,30.1897625 28.3331351,31.7390714 C28.3326645,31.7433291 28.3326645,31.7466406 28.3321938,31.7508982 C28.3326645,31.7707672 28.3321938,31.7906362 28.3321938,31.8105052 C28.3321938,31.8232782 28.3303112,31.835578 28.3307819,31.8483509 C28.3307819,31.8540278 28.3317232,31.8597047 28.3317232,31.8653815 L28.3317232,31.8947119 C28.3317232,31.8999157 28.3326645,31.9046464 28.3326645,31.9098502 C28.306308,33.444967 27.713287,34.9715685 26.5479535,36.1428933 C25.3703832,37.326518 23.8313524,37.9244803 22.287615,37.9386724 C22.2537281,37.9381994 22.2207825,37.9348879 22.1868956,37.9353609 C20.8017679,37.9533377 19.6251388,38.8185853 19.1366024,40.0339058 C19.1351905,40.0376904 19.1337785,40.0424211 19.1323666,40.0466787 C19.0942438,40.1427122 19.0594156,40.240638 19.0302352,40.3404561 C19.0283526,40.3475521 19.0274113,40.3541751 19.0255287,40.3607981 C18.9375168,40.6687676 18.8909223,40.9947138 18.8951582,41.3320138 C18.9078657,42.267276 19.3003892,43.1069778 19.9225906,43.7073054 C20.5325551,44.2953332 21.3632553,44.6529752 22.2749075,44.6406753 C22.3902171,44.6392561 22.5036441,44.631687 22.6151886,44.618441 C22.6203657,44.6179679 22.6255429,44.6170217 22.6307201,44.6165487 C22.736146,44.6033027 22.8401601,44.5867452 22.9422915,44.5640377 C22.9710012,44.5578878 22.9987697,44.5484264 23.0270087,44.5413303 C23.1046663,44.5224075 23.1823238,44.5030115 23.257628,44.4788849 C23.2985747,44.4651658 23.3371682,44.4481352 23.3776442,44.43347 C23.4383583,44.4112357 23.499543,44.3899475 23.5583744,44.3639285 C23.6082635,44.3421672 23.6557993,44.3166214 23.7038058,44.2924947 C23.7508709,44.2693142 23.7984068,44.248026 23.8435893,44.2229532 C23.9005382,44.1912575 23.9541924,44.1557771 24.008788,44.1212429 C24.0426749,44.0990085 24.0784445,44.0791395 24.1118607,44.055959 C24.1730454,44.0143287 24.2304649,43.9684408 24.2883551,43.9225529 C24.312829,43.903157 24.3382442,43.8856533 24.3617767,43.8657843 C24.4253147,43.8128003 24.4850875,43.7565048 24.5439189,43.6992632 C24.5599211,43.6836518 24.5768645,43.6694597 24.592396,43.6538483 C24.655934,43.5899837 24.7152361,43.5223345 24.7735969,43.4537391 C24.78301,43.4428585 24.7928936,43.4324509 24.801836,43.4215703 C24.8630207,43.346825 24.9204402,43.2687682 24.9755065,43.1888191 C24.9797423,43.1826692 24.9849195,43.1769923 24.9891554,43.1703693 C25.0461042,43.0861626 25.0988172,42.9991175 25.1482356,42.9092339 C25.1496476,42.9068685 25.1515302,42.9040301 25.1529421,42.9016648 C25.355793,42.5307768 25.4899287,42.1177854 25.5407591,41.6787751 C25.5412297,41.6783021 25.5412297,41.6773559 25.5412297,41.6764098 C25.5534667,41.5694956 25.5600558,41.4611623 25.562409,41.3518828 C25.562409,41.3485713 25.5628797,41.3457328 25.5628797,41.3424213 L25.5628797,41.3343791 C25.5633503,41.3041026 25.5671156,41.2742991 25.5666449,41.2435494 C25.5661743,41.2293573 25.5642916,41.2161113 25.563821,41.2019191 L25.563821,41.1990807 C25.5859416,39.6582871 26.1803746,38.1245895 27.3499439,36.9494801 C28.525161,35.7677477 30.0599559,35.1707315 31.6003987,35.154174 C31.6036933,35.154174 31.6069878,35.1546471 31.6098117,35.1546471 C31.6262845,35.1546471 31.6427574,35.1551202 31.6592302,35.1551202 C31.6761736,35.1551202 31.6931171,35.1570125 31.7100605,35.1565394 C31.717591,35.1565394 31.7251214,35.1555933 31.7331225,35.1555933 L31.7528898,35.1555933 C31.7914833,35.1546471 31.8286647,35.1489703 31.8667875,35.1466049 C31.9369146,35.1423473 32.0070417,35.1390358 32.0752862,35.1309935 C32.1049372,35.127209 32.1331763,35.120586 32.1618861,35.1163283 C32.2433088,35.1040285 32.3237903,35.0917286 32.4028597,35.0737519 C32.4094488,35.0723327 32.4155673,35.0699673 32.4216858,35.0685481 C33.8830591,34.7284098 34.969323,33.425098 34.9975621,31.8668007 C34.9980328,31.8644354 34.9980328,31.8615969 34.9985034,31.8587585 L34.9985034,31.8516624 C34.9989741,31.8209128 35.0022686,31.7906362 35.001798,31.7598866 C35.0013273,31.7456944 34.9994447,31.7324484 34.9989741,31.7182563 L34.9989741,31.7154179 C34.9989741,31.7102141 34.9980328,31.7050103 34.9980328,31.6998065 C35.0239186,30.1651628 35.617881,28.6380883 36.7827437,27.4667634 C37.9612554,26.2826656 39.5007568,25.6847034 41.0454355,25.6709843 C41.0614376,25.6705112 41.0774398,25.6709843 41.0934419,25.6709843 C41.110856,25.6709843 41.1282702,25.6733496 41.1456843,25.6728766 C41.1532147,25.6728766 41.1607451,25.6719304 41.1687462,25.6714574 L41.1880429,25.6714574 C41.2233418,25.6705112 41.2572287,25.6657805 41.2920569,25.6638882 C41.3664199,25.6591575 41.4412535,25.6553729 41.5142045,25.6463846 C41.5447968,25.6426 41.5744479,25.635977 41.6050403,25.6312463" id="Fill-1"></path>
                            <path d="M12.7515072,28.4512723 C10.9093767,28.4758721 9.43576651,29.9967967 9.45976975,31.8483982 C9.48424363,33.6999998 10.9973886,35.1811864 12.839519,35.1565867 C14.6821202,35.1324601 16.1552597,33.6115354 16.1312565,31.7599339 C16.1067826,29.9083323 14.5936376,28.4266726 12.7515072,28.4512723" id="Fill-3"></path>
                            <path d="M3.31640118,18.9674676 C1.47427073,18.9920673 0.000660496957,20.5129919 0.0246637297,22.3645935 C0.0491376141,24.216195 1.56181193,25.6973817 3.40441303,25.672782 C5.24654348,25.6486553 6.72015371,24.1277307 6.69615048,22.2761291 C6.6716766,20.4245276 5.15853163,18.9433409 3.31640118,18.9674676" id="Fill-5"></path>
                            <path d="M12.7515072,9.48385206 C10.9093767,9.50797871 9.43576651,11.0293764 9.45976975,12.880978 C9.48424363,14.7325795 10.9973886,16.2137661 12.839519,16.1891664 C14.6821202,16.1650398 16.1552597,14.6441152 16.1312565,12.7925136 C16.1067826,10.940439 14.5936376,9.45925235 12.7515072,9.48385206" id="Fill-7"></path>
                        </g>
                        <g id="Group-11" transform="translate(0.000000, 53.437675)">
                            <mask id="mask-2" fill="white">
                                <use xlink:href="#path-1"></use>
                            </mask>
                            <g id="Clip-10"></g>
                            <path d="M2.71565986,1.34508398 L6.76420512,7.50258163 L6.76420512,1.28784234 C6.76420512,0.884312413 6.85033437,0.581546701 7.02306351,0.379072132 C7.19579266,0.177543705 7.42829456,0.0763064207 7.72151052,0.0763064207 C8.02366886,0.0763064207 8.26275989,0.177543705 8.43737164,0.379072132 C8.61245404,0.581546701 8.69999525,0.884312413 8.69999525,1.28784234 L8.69999525,9.50556604 C8.69999525,10.4223785 8.32159134,10.8807847 7.56525418,10.8807847 C7.37605223,10.8807847 7.206147,10.8533465 7.05506782,10.7989433 C6.903518,10.744067 6.76185186,10.657495 6.62959876,10.538754 C6.496875,10.4200131 6.37403493,10.2809301 6.26060789,10.121505 C6.1476515,9.96255304 6.0337538,9.79981647 5.92032676,9.6337684 L1.971089,3.54723146 L1.971089,9.66924875 C1.971089,10.068048 1.87884128,10.3703406 1.69481649,10.5742344 C1.51032106,10.7786012 1.27405394,10.8807847 0.985544498,10.8807847 C0.687622021,10.8807847 0.449001648,10.777182 0.269212728,10.5704498 C0.0894238083,10.3637176 0,10.0637903 0,9.66924875 L0,1.60858476 C0,1.26655412 0.0376521298,0.998322626 0.113427041,0.803417199 C0.203321501,0.589588916 0.352047414,0.41502556 0.560075431,0.279727133 C0.768103448,0.143955634 0.992604272,0.0763064207 1.2335779,0.0763064207 C1.42277986,0.0763064207 1.58468401,0.107529135 1.71929038,0.16902842 C1.85389674,0.231000776 1.9720303,0.314261347 2.07369105,0.418810132 C2.17582245,0.523358916 2.27936581,0.658657344 2.38573308,0.824705413 C2.49210034,0.991226555 2.60223282,1.1643707 2.71565986,1.34508398" id="Fill-9" fill="#FFFFFF" mask="url(#mask-2)"></path>
                        </g>
                        <path d="M17.8535104,55.3244257 L13.1098127,55.3244257 L13.1098127,57.8898921 L17.4774597,57.8898921 C17.7989148,57.8898921 18.0389471,57.9627451 18.1970861,58.1075049 C18.3556957,58.2522648 18.4347651,58.4433856 18.4347651,58.6813406 C18.4347651,58.9188224 18.356637,59.1123086 18.2008513,59.2617992 C18.0450656,59.4117628 17.804092,59.4865081 17.4774597,59.4865081 L13.1098127,59.4865081 L13.1098127,62.4583428 L18.0163559,62.4583428 C18.3472239,62.4583428 18.5966693,62.5354534 18.7646919,62.6896747 C18.9322439,62.8443691 19.0164906,63.0496821 19.0164906,63.3065599 C19.0164906,63.5535032 18.9322439,63.7540854 18.7646919,63.9087798 C18.5966693,64.0630011 18.3472239,64.1401117 18.0163559,64.1401117 L12.2946441,64.1401117 C11.8357587,64.1401117 11.5063026,64.0379283 11.3053344,63.8335614 C11.1043661,63.6296677 11.0041173,63.2989907 11.0041173,62.8434229 L11.0041173,54.9894912 C11.0041173,54.6853062 11.0488292,54.4369437 11.1387237,54.2444037 C11.2286182,54.0523367 11.369343,53.9123075 11.5604275,53.8243162 C11.7524534,53.736325 11.9967216,53.6923293 12.2946441,53.6923293 L17.8535104,53.6923293 C18.189085,53.6923293 18.4385304,53.7670746 18.6013758,53.9165652 C18.7646919,54.0665288 18.8461147,54.2623804 18.8461147,54.505066 C18.8461147,54.7520093 18.7646919,54.9502262 18.6013758,55.0997168 C18.4385304,55.2496804 18.189085,55.3244257 17.8535104,55.3244257" id="Fill-12" fill="#FFFFFF"></path>
                        <g id="Group-16" transform="translate(20.708671, 53.437675)">
                            <mask id="mask-4" fill="white">
                                <use xlink:href="#path-3"></use>
                            </mask>
                            <g id="Clip-15"></g>
                            <path d="M0.0661736182,9.59076621 L0.0661736182,1.35932343 C0.0661736182,0.931666862 0.163127852,0.610924437 0.357036321,0.397096153 C0.550474138,0.18326787 0.801331453,0.0763537278 1.10819631,0.0763537278 C1.42494485,0.0763537278 1.68144999,0.182321727 1.87771171,0.393784653 C2.07397344,0.604774508 2.17186898,0.926936148 2.17186898,1.35932343 L2.17186898,9.59076621 C2.17186898,10.0231535 2.07397344,10.3462613 1.87771171,10.5600896 C1.68144999,10.7739178 1.42494485,10.880832 1.10819631,10.880832 C0.806037969,10.880832 0.556592609,10.7724986 0.360330882,10.5567781 C0.164069156,10.3401113 0.0661736182,10.0184228 0.0661736182,9.59076621" id="Fill-14" fill="#FFFFFF" mask="url(#mask-4)"></path>
                        </g>
                        <path d="M29.2691184,55.2816601 L27.3262685,55.2816601 L27.3262685,58.1536767 L29.2121696,58.1536767 C29.7181201,58.1536767 30.1435892,58.109681 30.4885768,58.0216898 C30.8335644,57.9336985 31.0971293,57.7842079 31.2792715,57.572745 C31.460943,57.3612821 31.5522495,57.0703431 31.5522495,56.6999282 C31.5522495,56.4099354 31.4788278,56.1544769 31.3324552,55.9335525 C31.1856118,55.7126281 30.982761,55.5475262 30.7224907,55.4382467 C30.4768105,55.3336979 29.99251,55.2816601 29.2691184,55.2816601 M28.0637796,59.6717629 L27.3262685,59.6717629 L27.3262685,63.0282046 C27.3262685,63.4705264 27.2293143,63.7959996 27.0354058,64.0046241 C26.841968,64.2137216 26.5887574,64.3182704 26.2771861,64.3182704 C25.9411408,64.3182704 25.6813411,64.2089909 25.4968457,63.9904319 C25.3128209,63.7718729 25.2205732,63.4516036 25.2205732,63.0282046 L25.2205732,54.9893019 C25.2205732,54.5332611 25.3222339,54.2030572 25.5250848,53.9986904 C25.7288769,53.7943235 26.0569211,53.6921401 26.5110999,53.6921401 L29.9355611,53.6921401 C30.4080954,53.6921401 30.8123851,53.7124822 31.1479597,53.7531663 C31.4835343,53.7933774 31.7861633,53.8752187 32.055376,53.9986904 C32.3815376,54.1368272 32.6700471,54.3336249 32.9204337,54.5905027 C33.171291,54.8469074 33.3614343,55.1449424 33.4913341,55.4846077 C33.621234,55.824273 33.6861839,56.1842804 33.6861839,56.5641567 C33.6861839,57.3437784 33.4678016,57.9658673 33.0305662,58.4318427 C32.5933309,58.897345 31.9301827,59.2275488 31.0415925,59.4219812 C31.4152898,59.6216173 31.7720438,59.9163408 32.1123249,60.3061517 C32.452606,60.6954895 32.7561763,61.1103731 33.0235064,61.5498564 C33.2903659,61.9893398 33.4983939,62.3857736 33.6475905,62.7396311 C33.7963164,63.0939616 33.8706794,63.3371203 33.8706794,63.4705264 C33.8706794,63.6081902 33.8269088,63.7449078 33.7398382,63.8802063 C33.652297,64.0155047 33.5327515,64.1224188 33.3816723,64.2009487 C33.2301225,64.2794786 33.0550401,64.3182704 32.8568958,64.3182704 C32.6206286,64.3182704 32.4220137,64.262448 32.2610508,64.1508031 C32.1005586,64.0391583 31.962187,63.8977099 31.8464067,63.7269311 C31.7306264,63.5556793 31.5734288,63.3040053 31.3748138,62.9714361 L30.5314061,61.560264 C30.2287771,61.0427239 29.9576818,60.6481823 29.719532,60.3771124 C29.480441,60.1065155 29.2385261,59.9210715 28.9928459,59.8212535 C28.7466951,59.7214354 28.4370064,59.6717629 28.0637796,59.6717629" id="Fill-17" fill="#FFFFFF"></path>
                        <g id="Group-21" transform="translate(35.298872, 53.437675)">
                            <mask id="mask-6" fill="white">
                                <use xlink:href="#path-5"></use>
                            </mask>
                            <g id="Clip-20"></g>
                            <path d="M0.464909673,9.59076621 L0.464909673,1.35932343 C0.464909673,0.931666862 0.561863907,0.610924437 0.755772376,0.397096153 C0.949210193,0.18326787 1.20006751,0.0763537278 1.50693237,0.0763537278 C1.82368091,0.0763537278 2.08018604,0.182321727 2.27644777,0.393784653 C2.4727095,0.604774508 2.57060503,0.926936148 2.57060503,1.35932343 L2.57060503,9.59076621 C2.57060503,10.0231535 2.4727095,10.3462613 2.27644777,10.5600896 C2.08018604,10.7739178 1.82368091,10.880832 1.50693237,10.880832 C1.20477402,10.880832 0.955328664,10.7724986 0.759066937,10.5567781 C0.56280521,10.3401113 0.464909673,10.0184228 0.464909673,9.59076621" id="Fill-19" fill="#FFFFFF" mask="url(#mask-6)"></path>
                        </g>
                        <path d="M42.3437264,54.7970457 L42.3437264,58.4600377 L46.4774596,54.1267035 C46.6760746,53.918079 46.8445679,53.7633846 46.9843514,53.6635666 C47.1236643,53.5642216 47.309101,53.514076 47.5406616,53.514076 C47.8432906,53.514076 48.0880294,53.6034865 48.2748781,53.7813614 C48.4617268,53.9592362 48.5549159,54.1768491 48.5549159,54.4332538 C48.5549159,54.7421694 48.3963063,55.0487197 48.0800284,55.3529046 L45.5201542,57.7901686 L48.4697279,62.0378769 C48.6777559,62.3326004 48.8335416,62.5899513 48.9375556,62.8108756 C49.0415696,63.0318 49.093812,63.2470475 49.093812,63.4561451 C49.093812,63.6888962 49.0025055,63.8908977 48.820834,64.0616765 C48.6386918,64.2329283 48.3915997,64.3180812 48.0800284,64.3180812 C47.7863418,64.3180812 47.548192,64.2551627 47.3636966,64.1297988 C47.1792012,64.0034887 47.0234155,63.8360214 46.8953982,63.6273969 C46.7678516,63.4182993 46.6544246,63.2281246 46.5551171,63.0568728 L44.066782,59.2084367 L42.3437264,60.8689174 L42.3437264,63.0284885 C42.3437264,63.4656065 42.2444189,63.7896604 42.0458039,64.0011233 C41.8471889,64.2125863 41.5920957,64.3180812 41.2800537,64.3180812 C41.1002648,64.3180812 40.9280063,64.270774 40.7623369,64.1756867 C40.5971382,64.0810724 40.4695916,63.95287 40.3796972,63.7910796 C40.3133353,63.6581466 40.2733299,63.5034522 40.2592104,63.3279427 C40.2450908,63.1519601 40.2375604,62.8979208 40.2375604,62.5648785 L40.2375604,54.7970457 C40.2375604,54.3693891 40.33122,54.0486467 40.5180687,53.8348184 C40.7044468,53.6209901 40.9585987,53.514076 41.2800537,53.514076 C41.5968023,53.514076 41.8533074,53.620044 42.0495691,53.8310339 C42.2453602,54.0424968 42.3437264,54.3646584 42.3437264,54.7970457" id="Fill-22" fill="#FFFFFF"></path>
                        <g id="Group-26" transform="translate(49.889072, 53.437675)">
                            <mask id="mask-8" fill="white">
                                <use xlink:href="#path-7"></use>
                            </mask>
                            <g id="Clip-25"></g>
                            <path d="M3.56504485,6.61883691 L6.6708749,6.61883691 L5.103605,2.30726395 L3.56504485,6.61883691 Z M7.73407692,9.51923781 L7.23801011,8.20788382 L3.01202919,8.20788382 L2.51596238,9.54809516 C2.32158326,10.0708391 2.15638454,10.4232773 2.01942492,10.6063559 C1.88199464,10.7889615 1.65796447,10.8807374 1.34592245,10.8807374 C1.08094558,10.8807374 0.847031725,10.7832847 0.643710224,10.5883792 C0.440388723,10.3934738 0.339198624,10.1730225 0.339198624,9.92560616 C0.339198624,9.78321166 0.362731206,9.63608645 0.409796368,9.48375745 C0.45686153,9.33190152 0.5349897,9.1204386 0.643710224,8.84936867 L3.30289189,2.06505138 C3.37819615,1.87014595 3.46950257,1.6359756 3.57539918,1.36301339 C3.6822371,1.0895781 3.79566414,0.862976891 3.91615096,0.682263608 C4.03663777,0.501550324 4.19477672,0.355844325 4.39103844,0.243726398 C4.58730017,0.132554613 4.82968576,0.0762591135 5.11772455,0.0762591135 C5.41094051,0.0762591135 5.6552087,0.132554613 5.85147043,0.243726398 C6.04773216,0.355844325 6.20634175,0.499184967 6.32682857,0.675167536 C6.44731538,0.851150106 6.54897613,1.0399056 6.63181082,1.24143403 C6.71417485,1.4439086 6.81960082,1.71308624 6.94714741,2.05038617 L9.66280727,8.7926001 C9.8755418,9.30588259 9.98190907,9.67866288 9.98190907,9.91141402 C9.98190907,10.1536266 9.88118962,10.3759702 9.68069203,10.5779717 C9.47925314,10.7795001 9.2373382,10.8807374 8.95353528,10.8807374 C8.78833656,10.8807374 8.64619977,10.8509339 8.52806621,10.7917999 C8.40993265,10.7321929 8.31062516,10.6512977 8.23061438,10.5495874 C8.15013296,10.4474039 8.06400371,10.2903442 7.97175599,10.0788813 C7.87950827,9.86741837 7.8004388,9.68102823 7.73407692,9.51923781 L7.73407692,9.51923781 Z" id="Fill-24" fill="#FFFFFF" mask="url(#mask-8)"></path>
                        </g>
                    </g>
                </g>
            </g>
        </g>
    </g>
</svg>