<?xml version="1.0" encoding="UTF-8"?>
<svg width="20px" height="26px" viewBox="0 0 20 26" version="1.1" xmlns="http://www.w3.org/2000/svg" xmlns:xlink="http://www.w3.org/1999/xlink">
    <!-- Generator: Sketch 44.1 (41455) - http://www.bohemiancoding.com/sketch -->
    <title>microphone</title>
    <desc>Created with Sketch.</desc>
    <defs></defs>
    <g id="Админка--правая-сторона" stroke="none" stroke-width="1" fill="none" fill-rule="evenodd">
        <g id="039-Группы" transform="translate(-56.000000, -244.000000)" fill-rule="nonzero" fill="#827F9C">
            <g id="softFon">
                <g id="left_menu-copy">
                    <path d="M65.5789517,244 C67.8463219,244 69.6842753,245.837953 69.6842753,248.105269 L69.6842753,256.315725 C69.6842753,258.583095 67.8463219,260.421048 65.5789517,260.421048 C63.3115814,260.421048 61.4736007,258.583095 61.4736007,256.315725 L61.4736007,248.105269 C61.4736007,245.837953 63.3115814,244 65.5789517,244 Z M75.1581771,256.315588 C75.1581771,261.141396 71.5896929,265.133686 66.9475298,265.797654 L66.9475298,270 L64.2106473,270 L64.2106473,265.797654 C59.5684842,265.133686 56,261.141396 56,256.315588 L58.7368824,256.315588 C58.7368824,260.094401 61.8002339,263.157794 65.5790885,263.157794 C69.3579021,263.157794 72.4212946,260.094401 72.4212946,256.315588 L75.1581771,256.315588 Z" id="microphone"></path>
                </g>
            </g>
        </g>
    </g>
</svg>