<?xml version="1.0" encoding="UTF-8"?>
<svg width="24px" height="24px" viewBox="0 0 24 24" version="1.1" xmlns="http://www.w3.org/2000/svg" xmlns:xlink="http://www.w3.org/1999/xlink">
    <!-- Generator: Sketch 44.1 (41455) - http://www.bohemiancoding.com/sketch -->
    <title>phone-paused copy</title>
    <desc>Created with Sketch.</desc>
    <defs></defs>
    <g id="Админка--правая-сторона" stroke="none" stroke-width="1" fill="none" fill-rule="evenodd">
        <g id="039-Группы" transform="translate(-54.000000, -305.000000)" fill-rule="nonzero" fill="#827F9C">
            <g id="softFon">
                <g id="left_menu-copy">
                    <path d="M74.5431885,314.182084 L77.1110854,314.182084 L77.1110854,305.194444 L74.5431885,305.194444 L74.5431885,314.182084 Z M75.827137,321.243839 C74.2260532,321.243839 72.685315,320.985765 71.240873,320.514556 C70.7966268,320.370754 70.2894672,320.476038 69.9363813,320.829124 L67.1116947,323.657662 C63.4742687,321.807492 60.5019151,318.837719 58.6517325,315.202861 L61.476432,312.367852 C61.829505,312.014766 61.9347888,311.508903 61.7897026,311.064657 C61.3185192,309.621499 61.0617166,308.079477 61.0617166,306.478393 C61.0617166,305.768369 60.4878045,305.194444 59.7777681,305.194444 L55.2839485,305.194444 C54.5739121,305.194444 54,305.768369 54,306.478393 C54,318.53291 63.7721447,328.305556 75.827137,328.305556 C76.5371605,328.305556 77.1110854,327.731631 77.1110854,327.021607 L77.1110854,322.527787 C77.1110854,321.817764 76.5371605,321.243839 75.827137,321.243839 Z M71.9752915,305.194444 L69.4073946,305.194444 L69.4073946,314.182084 L71.9752915,314.182084 L71.9752915,305.194444 Z" id="phone-paused-copy"></path>
                </g>
            </g>
        </g>
    </g>
</svg>