<?xml version="1.0" encoding="UTF-8"?>
<svg width="24px" height="24px" viewBox="0 0 24 24" version="1.1" xmlns="http://www.w3.org/2000/svg" xmlns:xlink="http://www.w3.org/1999/xlink">
    <!-- Generator: Sketch 44.1 (41455) - http://www.bohemiancoding.com/sketch -->
    <title>record-rec</title>
    <desc>Created with Sketch.</desc>
    <defs></defs>
    <g id="Админка--правая-сторона" stroke="none" stroke-width="1" fill="none" fill-rule="evenodd">
        <g id="039-Группы" transform="translate(-54.000000, -363.000000)" fill-rule="nonzero" fill="#827F9C">
            <g id="softFon">
                <g id="left_menu-copy">
                    <path d="M65.5555556,363.5 C59.1768889,363.5 54,368.674963 54,375.055556 C54,381.434222 59.1768889,386.611111 65.5555556,386.611111 C71.9360711,386.611111 77.1111111,381.434222 77.1111111,375.055556 C77.1111111,368.674963 71.9360711,363.5 65.5555556,363.5 Z M57.0853333,371.203704 L60.161037,371.203704 C61.0122963,371.203704 61.7037037,371.895188 61.7037037,372.746293 L61.7037037,374.289037 C61.7037037,375.063259 61.124,375.671852 60.3805926,375.785559 L62.1774815,378.907407 L60.4017778,378.907407 L58.6183704,375.822074 L58.6183704,378.907407 L57.0853333,378.907407 L57.0853333,371.203704 Z M64.789037,371.203704 L67.8646637,371.203704 L67.8646637,372.746293 L64.789037,372.746293 L64.789037,374.289037 L67.8646637,374.289037 L67.8646637,375.822074 L64.789037,375.822074 L64.789037,377.364664 L67.8646637,377.364664 L67.8646637,378.907407 L64.789037,378.907407 C63.9300741,378.907407 63.2464474,378.216077 63.2464474,377.364664 L63.2464474,372.746293 C63.2464474,371.895188 63.9300741,371.203704 64.789037,371.203704 Z M70.949997,371.203704 L74.0257778,371.203704 L74.0257778,372.746293 L70.949997,372.746293 L70.949997,377.364664 L74.0257778,377.364664 L74.0257778,378.907407 L70.949997,378.907407 C70.0988919,378.907407 69.4074074,378.216077 69.4074074,377.364664 L69.4074074,372.746293 C69.4074074,371.895188 70.0988919,371.203704 70.949997,371.203704 Z M58.6183704,372.746293 L58.6183704,374.289037 L60.161037,374.289037 L60.161037,372.746293 L58.6183704,372.746293 Z" id="record-rec"></path>
                </g>
            </g>
        </g>
    </g>
</svg>