<?xml version="1.0" encoding="UTF-8"?>
<svg width="10px" height="13px" viewBox="0 0 10 13" version="1.1" xmlns="http://www.w3.org/2000/svg" xmlns:xlink="http://www.w3.org/1999/xlink">
    <!-- Generator: Sketch 44.1 (41455) - http://www.bohemiancoding.com/sketch -->
    <title>Shape</title>
    <desc>Created with Sketch.</desc>
    <defs></defs>
    <g id="Админка--правая-сторона" stroke="none" stroke-width="1" fill="none" fill-rule="evenodd">
        <g id="039-Группы" transform="translate(-1520.000000, -108.000000)" fill-rule="nonzero" fill="#98A6AD">
            <g id="Группа" transform="translate(480.000000, 95.000000)">
                <g id="Экспорт" transform="translate(1045.000000, 20.000000) rotate(-90.000000) translate(-1045.000000, -20.000000) translate(1030.000000, 5.000000)">
                    <path d="M22,14.727269 L19.6363626,12.3636493 L19.6363626,14.1363596 L14.3181783,14.1363596 L14.3181783,15.3181783 L19.6363626,15.3181783 L19.6363626,17.0909064 L22,14.727269 Z M9,18.2727251 L9,11.1818246 C9,10.5259152 9.53181251,10.0000118 10.1818128,10.0000118 L17.2727251,10 C17.9227254,10 18.4545438,10.5259093 18.4545438,11.1818187 L18.4545438,12.9545409 L17.2727251,12.9545409 L17.2727251,11.1818187 L10.1818128,11.1818246 L10.1818128,18.2727251 L17.2727251,18.2727251 L17.2727251,16.499997 L18.4545438,16.499997 L18.4545438,18.2727251 C18.4545438,18.9227254 17.9227254,19.4545438 17.2727251,19.4545438 L10.1818128,19.4545438 C9.53181251,19.4545438 9,18.9286345 9,18.2727251 Z" id="Shape"></path>
                </g>
            </g>
        </g>
    </g>
</svg>